<?xml version="1.0" encoding="utf-8"?>
<!-- Generator: Adobe Illustrator 16.0.4, SVG Export Plug-In . SVG Version: 6.00 Build 0)  -->
<!DOCTYPE svg PUBLIC "-//W3C//DTD SVG 1.1//EN" "http://www.w3.org/Graphics/SVG/1.1/DTD/svg11.dtd">
<svg version="1.1" id="Layer_1" xmlns="http://www.w3.org/2000/svg" xmlns:xlink="http://www.w3.org/1999/xlink" x="0px" y="0px"
	 width="256px" height="256px" viewBox="0 0 256 256" enable-background="new 0 0 256 256" xml:space="preserve">
<rect y="53.041" fill="#5B3C83" width="256" height="149.92"/>
<g>
	<path fill="#FFFFFF" d="M157.628,91.694c2.728,3.792,4.091,8.328,4.091,13.61c0,5.444-1.376,9.819-4.126,13.126
		c-1.538,1.854-3.807,3.547-6.806,5.082c4.553,1.651,7.988,4.272,10.303,7.86c2.314,3.59,3.475,7.946,3.475,13.066
		c0,5.284-1.324,10.021-3.973,14.213c-1.682,2.782-3.786,5.123-6.313,7.016c-2.849,2.18-6.205,3.67-10.073,4.478
		c-3.868,0.81-8.07,1.208-12.597,1.208H91.435V82.199h43.088C145.392,82.361,153.095,85.525,157.628,91.694z M109.219,97.683v19.656
		h21.672c3.867,0,7.008-0.734,9.423-2.206c2.417-1.472,3.622-4.083,3.622-7.834c0-4.152-1.593-6.896-4.788-8.226
		c-2.754-0.926-6.265-1.39-10.536-1.39H109.219z M109.219,132.097v23.775h21.642c3.868,0,6.881-0.528,9.031-1.577
		c3.907-1.934,5.86-5.645,5.86-11.128c0-4.636-1.895-7.824-5.681-9.556c-2.113-0.967-5.084-1.472-8.912-1.515H109.219z"/>
</g>
<path fill="none" stroke="#FFFFFF" stroke-miterlimit="10" d="M187.636,175.678c0,5.929-4.806,10.734-10.734,10.734H79.099
	c-5.929,0-10.734-4.806-10.734-10.734V77.875c0-5.929,4.805-10.734,10.734-10.734h97.803c5.929,0,10.734,4.805,10.734,10.734
	V175.678z"/>
<g>
	<path fill="#5B3C83" d="M83.533,219.865c-1.098-0.765-2.401-1.147-3.912-1.147c-1.289,0-2.392,0.241-3.308,0.725
		c-0.917,0.483-1.672,1.133-2.266,1.948c-0.594,0.816-1.032,1.748-1.314,2.795c-0.282,1.047-0.423,2.135-0.423,3.263
		c0,1.229,0.141,2.392,0.423,3.489c0.282,1.098,0.72,2.054,1.314,2.869c0.594,0.816,1.354,1.466,2.281,1.949
		s2.034,0.725,3.323,0.725c0.946,0,1.787-0.155,2.522-0.468c0.735-0.312,1.37-0.745,1.903-1.3c0.533-0.554,0.952-1.213,1.253-1.979
		c0.302-0.765,0.483-1.591,0.544-2.477h2.87c-0.282,2.719-1.219,4.833-2.81,6.344c-1.591,1.511-3.767,2.266-6.525,2.266
		c-1.672,0-3.132-0.287-4.38-0.861c-1.249-0.573-2.286-1.364-3.111-2.371c-0.826-1.007-1.445-2.195-1.858-3.564
		c-0.413-1.37-0.62-2.84-0.62-4.411c0-1.57,0.222-3.046,0.665-4.426c0.443-1.379,1.092-2.583,1.949-3.609
		c0.856-1.027,1.923-1.838,3.202-2.433c1.279-0.594,2.744-0.891,4.396-0.891c1.128,0,2.195,0.151,3.202,0.453
		c1.007,0.302,1.903,0.745,2.689,1.329c0.785,0.584,1.439,1.314,1.963,2.19c0.523,0.876,0.866,1.888,1.027,3.036h-2.87
		C85.34,221.779,84.63,220.63,83.533,219.865z"/>
	<path fill="#5B3C83" d="M103.878,238.715c-0.665,0-1.193-0.187-1.586-0.559c-0.393-0.372-0.589-0.981-0.589-1.828
		c-0.705,0.847-1.525,1.456-2.462,1.828s-1.949,0.559-3.036,0.559c-0.705,0-1.37-0.075-1.994-0.227
		c-0.625-0.15-1.174-0.402-1.646-0.755c-0.474-0.353-0.846-0.806-1.118-1.359c-0.272-0.554-0.408-1.224-0.408-2.009
		c0-0.887,0.151-1.611,0.453-2.176c0.302-0.563,0.7-1.021,1.193-1.374c0.493-0.353,1.058-0.619,1.692-0.801
		c0.634-0.181,1.284-0.332,1.948-0.453c0.705-0.141,1.375-0.246,2.009-0.317c0.634-0.07,1.193-0.171,1.676-0.302
		s0.866-0.322,1.148-0.574c0.282-0.251,0.423-0.619,0.423-1.103c0-0.563-0.106-1.017-0.317-1.359
		c-0.211-0.342-0.483-0.604-0.816-0.785c-0.332-0.182-0.705-0.303-1.118-0.362c-0.413-0.061-0.821-0.091-1.223-0.091
		c-1.088,0-1.994,0.206-2.719,0.619c-0.725,0.413-1.118,1.193-1.178,2.341h-2.568c0.04-0.967,0.242-1.782,0.604-2.446
		c0.362-0.665,0.846-1.203,1.45-1.616c0.604-0.413,1.299-0.71,2.084-0.892c0.785-0.182,1.611-0.271,2.477-0.271
		c0.705,0,1.405,0.05,2.1,0.15c0.695,0.102,1.324,0.308,1.888,0.619c0.563,0.312,1.017,0.751,1.359,1.314
		c0.342,0.564,0.514,1.299,0.514,2.205v8.036c0,0.604,0.035,1.047,0.105,1.329c0.07,0.282,0.307,0.423,0.71,0.423
		c0.221,0,0.483-0.05,0.786-0.151v1.994C105.278,238.584,104.664,238.715,103.878,238.715z M100.283,230.846
		c-0.524,0.11-1.072,0.201-1.646,0.271c-0.574,0.071-1.153,0.151-1.737,0.242c-0.584,0.091-1.108,0.236-1.571,0.438
		c-0.464,0.202-0.841,0.489-1.133,0.861c-0.292,0.373-0.438,0.881-0.438,1.525c0,0.423,0.085,0.781,0.257,1.072
		c0.171,0.292,0.393,0.529,0.665,0.71c0.272,0.182,0.594,0.312,0.967,0.393c0.373,0.081,0.75,0.121,1.133,0.121
		c0.846,0,1.571-0.115,2.175-0.348c0.604-0.23,1.098-0.523,1.48-0.876c0.382-0.352,0.665-0.734,0.846-1.147s0.272-0.801,0.272-1.163
		v-2.629C101.229,230.559,100.807,230.736,100.283,230.846z"/>
	<path fill="#5B3C83" d="M110.434,222.765v3.293h0.06c0.624-1.27,1.39-2.205,2.296-2.81s2.054-0.886,3.444-0.846v2.719
		c-1.027,0-1.903,0.141-2.628,0.423s-1.31,0.694-1.752,1.238s-0.766,1.204-0.966,1.979c-0.202,0.776-0.302,1.667-0.302,2.674v6.948
		h-2.568v-15.618H110.434z"/>
	<path fill="#5B3C83" d="M117.261,227.372c0.322-0.996,0.805-1.862,1.45-2.598c0.644-0.735,1.439-1.314,2.387-1.737
		c0.946-0.423,2.034-0.634,3.262-0.634c1.249,0,2.341,0.211,3.278,0.634s1.726,1.002,2.371,1.737s1.129,1.602,1.451,2.598
		c0.32,0.997,0.482,2.069,0.482,3.218c0,1.147-0.162,2.216-0.482,3.202c-0.322,0.987-0.807,1.848-1.451,2.583
		s-1.434,1.31-2.371,1.722c-0.937,0.413-2.029,0.619-3.278,0.619c-1.229,0-2.316-0.206-3.262-0.619
		c-0.947-0.412-1.743-0.986-2.387-1.722c-0.645-0.735-1.128-1.596-1.45-2.583c-0.322-0.986-0.483-2.055-0.483-3.202
		C116.777,229.441,116.938,228.369,117.261,227.372z M119.874,233.112c0.251,0.735,0.599,1.35,1.042,1.843
		c0.443,0.494,0.961,0.871,1.556,1.133c0.594,0.262,1.223,0.393,1.888,0.393c0.665,0,1.294-0.131,1.888-0.393
		c0.594-0.262,1.113-0.639,1.556-1.133c0.443-0.493,0.791-1.107,1.042-1.843c0.251-0.735,0.377-1.575,0.377-2.522
		c0-0.946-0.126-1.787-0.377-2.522c-0.252-0.735-0.6-1.354-1.042-1.858c-0.443-0.503-0.962-0.886-1.556-1.147
		c-0.594-0.262-1.223-0.393-1.888-0.393c-0.665,0-1.294,0.131-1.888,0.393c-0.595,0.262-1.113,0.645-1.556,1.147
		c-0.443,0.504-0.791,1.123-1.042,1.858c-0.252,0.735-0.378,1.576-0.378,2.522C119.496,231.537,119.622,232.376,119.874,233.112z"/>
	<path fill="#5B3C83" d="M145.477,238.383v-2.478h-0.061c-0.545,0.967-1.238,1.677-2.084,2.13c-0.848,0.453-1.844,0.68-2.992,0.68
		c-1.027,0-1.883-0.136-2.566-0.407c-0.686-0.272-1.24-0.66-1.662-1.163c-0.424-0.504-0.721-1.103-0.891-1.798
		c-0.172-0.694-0.258-1.465-0.258-2.311v-10.271h2.568v10.573c0,0.967,0.281,1.732,0.846,2.296c0.564,0.564,1.34,0.846,2.326,0.846
		c0.785,0,1.465-0.121,2.039-0.362c0.574-0.242,1.053-0.584,1.436-1.027c0.381-0.442,0.668-0.961,0.859-1.556
		c0.191-0.594,0.287-1.243,0.287-1.948v-8.821h2.568v15.618H145.477z"/>
	<path fill="#5B3C83" d="M153.723,234.894c0.242,0.393,0.559,0.705,0.951,0.937s0.836,0.398,1.33,0.498
		c0.492,0.102,1.002,0.151,1.525,0.151c0.402,0,0.826-0.03,1.27-0.091c0.441-0.061,0.85-0.171,1.223-0.332s0.68-0.397,0.922-0.71
		c0.24-0.312,0.361-0.71,0.361-1.193c0-0.664-0.252-1.168-0.754-1.511c-0.504-0.342-1.133-0.619-1.889-0.83
		c-0.756-0.212-1.576-0.403-2.463-0.574s-1.707-0.412-2.461-0.725c-0.756-0.312-1.385-0.75-1.889-1.314
		c-0.504-0.563-0.756-1.349-0.756-2.356c0-0.785,0.178-1.46,0.529-2.024c0.352-0.563,0.805-1.021,1.359-1.374
		s1.178-0.614,1.873-0.785s1.385-0.257,2.07-0.257c0.885,0,1.701,0.075,2.445,0.227c0.746,0.15,1.406,0.413,1.98,0.785
		c0.572,0.373,1.031,0.876,1.373,1.511c0.342,0.634,0.545,1.425,0.605,2.371h-2.568c-0.041-0.503-0.172-0.921-0.393-1.254
		c-0.223-0.332-0.504-0.599-0.846-0.8c-0.344-0.201-0.721-0.348-1.133-0.438c-0.414-0.091-0.832-0.136-1.254-0.136
		c-0.383,0-0.771,0.03-1.164,0.091c-0.393,0.06-0.75,0.166-1.072,0.316c-0.322,0.151-0.584,0.353-0.785,0.604
		s-0.303,0.579-0.303,0.981c0,0.443,0.156,0.812,0.469,1.104s0.711,0.533,1.193,0.725c0.484,0.191,1.027,0.353,1.631,0.483
		c0.605,0.131,1.209,0.267,1.812,0.408c0.645,0.141,1.273,0.312,1.889,0.513c0.615,0.202,1.158,0.469,1.631,0.801
		s0.855,0.751,1.148,1.254c0.291,0.504,0.438,1.128,0.438,1.873c0,0.946-0.195,1.732-0.588,2.356s-0.906,1.128-1.541,1.511
		s-1.35,0.649-2.145,0.8c-0.797,0.151-1.586,0.227-2.371,0.227c-0.867,0-1.693-0.091-2.479-0.271
		c-0.785-0.182-1.48-0.479-2.084-0.892c-0.604-0.412-1.088-0.956-1.449-1.631c-0.363-0.675-0.564-1.495-0.605-2.462h2.568
		C153.35,234.023,153.481,234.501,153.723,234.894z"/>
	<path fill="#5B3C83" d="M177.92,237.386c-1.168,0.887-2.639,1.329-4.41,1.329c-1.25,0-2.332-0.201-3.248-0.604
		c-0.916-0.403-1.688-0.967-2.311-1.692c-0.625-0.725-1.094-1.591-1.404-2.598c-0.312-1.007-0.488-2.104-0.529-3.293
		c0-1.188,0.182-2.275,0.543-3.263c0.363-0.986,0.871-1.843,1.527-2.567c0.654-0.726,1.43-1.289,2.326-1.692
		c0.895-0.402,1.877-0.604,2.945-0.604c1.389,0,2.541,0.287,3.459,0.86c0.916,0.574,1.65,1.305,2.205,2.19
		c0.553,0.887,0.936,1.854,1.146,2.9c0.213,1.047,0.297,2.044,0.258,2.99h-11.691c-0.02,0.686,0.061,1.335,0.242,1.949
		s0.473,1.158,0.875,1.631c0.404,0.474,0.918,0.851,1.541,1.133c0.625,0.282,1.359,0.423,2.205,0.423
		c1.088,0,1.979-0.251,2.674-0.755c0.695-0.503,1.152-1.269,1.375-2.296h2.537C179.844,235.181,179.088,236.5,177.92,237.386z
		 M177.301,227.357c-0.232-0.544-0.543-1.012-0.936-1.405c-0.393-0.393-0.857-0.704-1.391-0.937
		c-0.533-0.23-1.123-0.347-1.768-0.347c-0.664,0-1.264,0.116-1.797,0.347c-0.533,0.232-0.992,0.55-1.375,0.952
		c-0.383,0.403-0.684,0.871-0.906,1.404c-0.221,0.534-0.352,1.103-0.393,1.707h8.973
		C177.668,228.474,177.534,227.901,177.301,227.357z"/>
	<path fill="#5B3C83" d="M185.805,216.814v21.569h-2.568v-21.569H185.805z"/>
</g>
<g>
	<path fill="#5B3C83" d="M43.25,17.72c-1.098-0.766-2.401-1.148-3.912-1.148c-1.289,0-2.392,0.242-3.308,0.726
		c-0.917,0.483-1.672,1.133-2.266,1.948c-0.594,0.815-1.032,1.747-1.314,2.795c-0.282,1.047-0.423,2.135-0.423,3.262
		c0,1.229,0.141,2.393,0.423,3.489c0.282,1.099,0.72,2.055,1.314,2.87c0.594,0.815,1.354,1.465,2.281,1.948s2.034,0.726,3.323,0.726
		c0.946,0,1.787-0.156,2.522-0.469c0.735-0.312,1.37-0.744,1.903-1.299c0.533-0.554,0.952-1.213,1.253-1.979
		c0.302-0.766,0.483-1.591,0.544-2.478h2.87c-0.282,2.719-1.219,4.834-2.81,6.345c-1.591,1.51-3.767,2.266-6.525,2.266
		c-1.672,0-3.132-0.287-4.38-0.861c-1.249-0.574-2.286-1.364-3.111-2.371c-0.826-1.007-1.445-2.195-1.858-3.565
		c-0.413-1.369-0.62-2.839-0.62-4.41s0.222-3.046,0.665-4.426c0.443-1.379,1.092-2.583,1.949-3.61
		c0.856-1.026,1.923-1.837,3.202-2.432c1.279-0.594,2.744-0.891,4.396-0.891c1.128,0,2.195,0.15,3.202,0.453
		c1.007,0.302,1.903,0.745,2.689,1.329c0.785,0.584,1.439,1.313,1.963,2.19c0.523,0.876,0.866,1.888,1.027,3.035h-2.87
		C45.057,19.633,44.347,18.486,43.25,17.72z"/>
	<path fill="#5B3C83" d="M61.48,14.669c2.175,0,3.821,0.559,4.939,1.676c1.118,1.118,1.677,2.685,1.677,4.698
		s-0.559,3.585-1.677,4.712c-1.118,1.129-2.764,1.683-4.939,1.662h-6.586v8.821h-2.87V14.669H61.48z M60.514,25
		c1.631,0.021,2.825-0.312,3.58-0.997c0.755-0.685,1.133-1.671,1.133-2.96s-0.378-2.271-1.133-2.945
		c-0.755-0.675-1.948-1.013-3.58-1.013h-5.619V25H60.514z"/>
	<path fill="#5B3C83" d="M69.305,17.085v-2.416h17.25v2.416h-7.19v19.153h-2.87V17.085H69.305z"/>
	<path fill="#5B3C83" d="M92.928,26.632v2.416h-8.731v-2.416H92.928z"/>
	<path fill="#5B3C83" d="M104.619,14.669c0.463,0,0.961,0.005,1.495,0.015c0.534,0.011,1.062,0.041,1.586,0.091
		c0.524,0.051,1.012,0.126,1.465,0.227s0.841,0.252,1.163,0.453c0.705,0.423,1.304,1.007,1.797,1.752
		c0.493,0.745,0.74,1.661,0.74,2.749c0,1.148-0.277,2.141-0.831,2.976c-0.554,0.836-1.345,1.455-2.372,1.858v0.06
		c1.329,0.282,2.346,0.887,3.051,1.813c0.705,0.926,1.057,2.054,1.057,3.383c0,0.785-0.141,1.551-0.423,2.296
		c-0.282,0.745-0.7,1.405-1.254,1.979c-0.554,0.574-1.238,1.038-2.054,1.39c-0.815,0.353-1.757,0.529-2.824,0.529H96.795V14.669
		H104.619z M105.404,23.943c1.631,0,2.805-0.286,3.52-0.86s1.073-1.436,1.073-2.583c0-0.766-0.121-1.369-0.363-1.812
		s-0.574-0.785-0.997-1.027c-0.423-0.241-0.911-0.397-1.465-0.468c-0.554-0.07-1.144-0.106-1.768-0.106h-5.74v6.857H105.404z
		 M106.854,33.822c1.269,0,2.261-0.342,2.976-1.027c0.715-0.685,1.073-1.631,1.073-2.84c0-0.704-0.131-1.288-0.393-1.752
		c-0.262-0.463-0.609-0.831-1.042-1.103c-0.434-0.271-0.932-0.463-1.496-0.574c-0.564-0.11-1.148-0.166-1.752-0.166h-6.556v7.462
		H106.854z"/>
	<path fill="#5B3C83" d="M116.703,25.227c0.322-0.997,0.805-1.862,1.45-2.598c0.644-0.735,1.439-1.314,2.387-1.737
		c0.946-0.423,2.034-0.635,3.262-0.635c1.249,0,2.341,0.212,3.278,0.635s1.727,1.002,2.372,1.737
		c0.644,0.735,1.127,1.601,1.449,2.598s0.484,2.069,0.484,3.218c0,1.147-0.162,2.216-0.484,3.202s-0.806,1.848-1.449,2.583
		c-0.646,0.735-1.436,1.309-2.372,1.722c-0.937,0.412-2.029,0.619-3.278,0.619c-1.229,0-2.316-0.207-3.262-0.619
		c-0.947-0.413-1.743-0.986-2.387-1.722c-0.645-0.735-1.128-1.597-1.45-2.583c-0.322-0.986-0.483-2.055-0.483-3.202
		C116.219,27.296,116.38,26.224,116.703,25.227z M119.316,30.967c0.251,0.735,0.599,1.35,1.042,1.843s0.961,0.871,1.556,1.133
		c0.594,0.262,1.223,0.393,1.888,0.393c0.665,0,1.294-0.131,1.888-0.393c0.594-0.262,1.113-0.64,1.556-1.133
		s0.791-1.107,1.042-1.843c0.251-0.735,0.377-1.576,0.377-2.522s-0.126-1.787-0.377-2.522c-0.252-0.735-0.6-1.354-1.042-1.858
		c-0.443-0.503-0.962-0.886-1.556-1.147c-0.594-0.262-1.223-0.393-1.888-0.393c-0.665,0-1.294,0.131-1.888,0.393
		c-0.595,0.262-1.113,0.645-1.556,1.147c-0.443,0.504-0.791,1.123-1.042,1.858c-0.252,0.735-0.378,1.576-0.378,2.522
		S119.064,30.232,119.316,30.967z"/>
	<path fill="#5B3C83" d="M134.043,25.227c0.321-0.997,0.805-1.862,1.449-2.598s1.44-1.314,2.387-1.737s2.034-0.635,3.263-0.635
		c1.249,0,2.342,0.212,3.278,0.635s1.727,1.002,2.371,1.737s1.128,1.601,1.45,2.598c0.321,0.997,0.483,2.069,0.483,3.218
		c0,1.147-0.162,2.216-0.483,3.202c-0.322,0.986-0.806,1.848-1.45,2.583s-1.435,1.309-2.371,1.722
		c-0.937,0.412-2.029,0.619-3.278,0.619c-1.229,0-2.316-0.207-3.263-0.619c-0.946-0.413-1.742-0.986-2.387-1.722
		s-1.128-1.597-1.449-2.583c-0.323-0.986-0.483-2.055-0.483-3.202C133.56,27.296,133.72,26.224,134.043,25.227z M136.656,30.967
		c0.252,0.735,0.6,1.35,1.043,1.843c0.442,0.493,0.961,0.871,1.556,1.133c0.594,0.262,1.224,0.393,1.888,0.393
		c0.665,0,1.294-0.131,1.889-0.393c0.594-0.262,1.112-0.64,1.556-1.133c0.442-0.493,0.79-1.107,1.042-1.843s0.378-1.576,0.378-2.522
		s-0.126-1.787-0.378-2.522s-0.6-1.354-1.042-1.858c-0.443-0.503-0.962-0.886-1.556-1.147c-0.595-0.262-1.224-0.393-1.889-0.393
		c-0.664,0-1.294,0.131-1.888,0.393c-0.595,0.262-1.113,0.645-1.556,1.147c-0.443,0.504-0.791,1.123-1.043,1.858
		s-0.377,1.576-0.377,2.522S136.404,30.232,136.656,30.967z"/>
	<path fill="#5B3C83" d="M158.421,20.621v2.266h-3.111v9.697c0,0.302,0.025,0.543,0.075,0.725c0.051,0.182,0.146,0.322,0.287,0.423
		c0.141,0.102,0.337,0.166,0.59,0.196c0.251,0.03,0.578,0.046,0.981,0.046h1.178v2.266h-1.963c-0.665,0-1.234-0.046-1.707-0.136
		c-0.474-0.091-0.856-0.257-1.148-0.499c-0.292-0.241-0.509-0.584-0.649-1.027c-0.141-0.442-0.211-1.026-0.211-1.752v-9.938h-2.659
		v-2.266h2.659v-4.683h2.567v4.683H158.421z"/>
	<path fill="#5B3C83" d="M163.225,32.75c0.241,0.393,0.559,0.705,0.951,0.937s0.836,0.397,1.329,0.498
		c0.493,0.102,1.002,0.151,1.525,0.151c0.403,0,0.826-0.03,1.27-0.091c0.442-0.061,0.851-0.171,1.223-0.332
		c0.373-0.161,0.68-0.397,0.922-0.71c0.241-0.312,0.362-0.71,0.362-1.193c0-0.665-0.252-1.168-0.755-1.511
		c-0.504-0.342-1.133-0.619-1.889-0.83c-0.755-0.212-1.576-0.403-2.462-0.574c-0.887-0.171-1.707-0.413-2.462-0.726
		c-0.755-0.312-1.385-0.75-1.888-1.313c-0.504-0.563-0.756-1.35-0.756-2.356c0-0.786,0.177-1.46,0.529-2.024
		c0.352-0.563,0.805-1.021,1.359-1.374c0.554-0.353,1.178-0.614,1.873-0.786c0.694-0.171,1.384-0.257,2.069-0.257
		c0.886,0,1.701,0.076,2.446,0.227c0.745,0.151,1.405,0.413,1.979,0.786c0.573,0.373,1.031,0.876,1.374,1.51
		c0.342,0.635,0.544,1.426,0.604,2.372h-2.568c-0.04-0.503-0.171-0.922-0.393-1.254s-0.504-0.599-0.846-0.801
		c-0.343-0.201-0.721-0.347-1.133-0.438c-0.413-0.091-0.831-0.136-1.254-0.136c-0.383,0-0.771,0.029-1.163,0.09
		s-0.75,0.166-1.072,0.317s-0.584,0.353-0.785,0.604c-0.202,0.252-0.303,0.579-0.303,0.981c0,0.443,0.156,0.812,0.469,1.103
		c0.312,0.292,0.71,0.534,1.193,0.726s1.027,0.353,1.631,0.483c0.604,0.131,1.209,0.267,1.812,0.407
		c0.645,0.142,1.273,0.312,1.889,0.514c0.614,0.202,1.157,0.469,1.631,0.801c0.473,0.332,0.855,0.75,1.148,1.254
		c0.291,0.503,0.438,1.128,0.438,1.873c0,0.946-0.196,1.732-0.589,2.356s-0.906,1.128-1.541,1.51
		c-0.634,0.383-1.35,0.649-2.145,0.801c-0.796,0.151-1.586,0.227-2.371,0.227c-0.866,0-1.692-0.091-2.478-0.271
		c-0.785-0.182-1.48-0.479-2.084-0.892c-0.604-0.412-1.088-0.956-1.45-1.631c-0.363-0.675-0.564-1.496-0.604-2.463h2.567
		C162.852,31.878,162.983,32.357,163.225,32.75z"/>
	<path fill="#5B3C83" d="M183.042,20.621v2.266h-3.111v9.697c0,0.302,0.025,0.543,0.075,0.725c0.051,0.182,0.146,0.322,0.287,0.423
		c0.141,0.102,0.337,0.166,0.59,0.196c0.251,0.03,0.578,0.046,0.981,0.046h1.178v2.266h-1.963c-0.665,0-1.234-0.046-1.707-0.136
		c-0.474-0.091-0.856-0.257-1.148-0.499c-0.292-0.241-0.509-0.584-0.649-1.027c-0.141-0.442-0.211-1.026-0.211-1.752v-9.938h-2.659
		v-2.266h2.659v-4.683h2.567v4.683H183.042z"/>
	<path fill="#5B3C83" d="M188.208,20.621v3.292h0.061c0.624-1.269,1.39-2.205,2.296-2.809c0.906-0.604,2.054-0.887,3.443-0.847v2.72
		c-1.027,0-1.903,0.141-2.628,0.423c-0.726,0.282-1.31,0.694-1.752,1.238c-0.443,0.544-0.766,1.203-0.967,1.979
		c-0.202,0.775-0.303,1.667-0.303,2.674v6.948h-2.567V20.621H188.208z"/>
	<path fill="#5B3C83" d="M207.934,36.571c-0.665,0-1.193-0.187-1.586-0.559c-0.393-0.373-0.589-0.982-0.589-1.828
		c-0.706,0.846-1.526,1.455-2.463,1.828c-0.937,0.372-1.948,0.559-3.036,0.559c-0.705,0-1.369-0.075-1.993-0.227
		c-0.625-0.151-1.174-0.402-1.646-0.755c-0.474-0.353-0.846-0.806-1.118-1.359c-0.271-0.554-0.407-1.224-0.407-2.01
		c0-0.886,0.15-1.61,0.453-2.175c0.302-0.563,0.699-1.021,1.193-1.374c0.493-0.353,1.057-0.619,1.691-0.801s1.284-0.332,1.948-0.453
		c0.705-0.141,1.375-0.246,2.009-0.317c0.635-0.07,1.193-0.171,1.677-0.302s0.866-0.322,1.148-0.574
		c0.281-0.252,0.423-0.619,0.423-1.103c0-0.563-0.105-1.017-0.317-1.359s-0.483-0.604-0.815-0.785
		c-0.333-0.182-0.705-0.303-1.118-0.363s-0.82-0.09-1.224-0.09c-1.087,0-1.993,0.206-2.719,0.619
		c-0.725,0.413-1.117,1.193-1.178,2.341h-2.568c0.04-0.967,0.242-1.782,0.604-2.447c0.362-0.664,0.846-1.203,1.45-1.616
		c0.604-0.412,1.299-0.71,2.084-0.891c0.786-0.182,1.611-0.272,2.478-0.272c0.705,0,1.404,0.051,2.1,0.151
		c0.694,0.102,1.324,0.308,1.888,0.619c0.563,0.312,1.017,0.751,1.359,1.314s0.514,1.299,0.514,2.205v8.036
		c0,0.604,0.035,1.047,0.106,1.329c0.07,0.282,0.307,0.423,0.709,0.423c0.222,0,0.483-0.05,0.786-0.151v1.994
		C209.333,36.44,208.719,36.571,207.934,36.571z M204.339,28.702c-0.524,0.11-1.073,0.201-1.646,0.271
		c-0.574,0.071-1.153,0.151-1.737,0.241c-0.584,0.091-1.107,0.237-1.571,0.438c-0.463,0.201-0.841,0.488-1.133,0.861
		s-0.438,0.881-0.438,1.525c0,0.423,0.085,0.78,0.257,1.072c0.171,0.292,0.393,0.528,0.664,0.71
		c0.272,0.182,0.594,0.312,0.967,0.393c0.373,0.081,0.75,0.121,1.133,0.121c0.846,0,1.571-0.116,2.175-0.348
		c0.604-0.231,1.098-0.523,1.48-0.876s0.665-0.735,0.846-1.147c0.182-0.413,0.272-0.801,0.272-1.163v-2.629
		C205.286,28.415,204.863,28.59,204.339,28.702z"/>
	<path fill="#5B3C83" d="M214.821,20.621v2.114h0.061c0.423-0.865,1.088-1.495,1.994-1.888c0.906-0.394,1.902-0.59,2.99-0.59
		c1.208,0,2.261,0.223,3.157,0.665c0.896,0.443,1.641,1.042,2.235,1.798c0.594,0.755,1.042,1.626,1.344,2.612
		c0.303,0.987,0.453,2.035,0.453,3.143s-0.146,2.155-0.438,3.142s-0.735,1.848-1.329,2.583c-0.595,0.735-1.34,1.313-2.235,1.736
		c-0.896,0.423-1.938,0.635-3.127,0.635c-0.383,0-0.811-0.041-1.284-0.121s-0.941-0.211-1.404-0.393
		c-0.464-0.181-0.901-0.428-1.314-0.74c-0.413-0.312-0.761-0.699-1.042-1.163h-0.061v8.036h-2.567V20.621H214.821z M224.05,26.164
		c-0.192-0.694-0.483-1.314-0.877-1.857c-0.393-0.544-0.896-0.977-1.51-1.3c-0.615-0.321-1.335-0.482-2.16-0.482
		c-0.866,0-1.602,0.171-2.205,0.513c-0.604,0.343-1.099,0.791-1.48,1.345c-0.383,0.554-0.66,1.184-0.831,1.888
		c-0.171,0.706-0.257,1.42-0.257,2.146c0,0.766,0.091,1.506,0.272,2.22c0.181,0.716,0.468,1.345,0.86,1.889s0.901,0.981,1.525,1.313
		c0.624,0.333,1.38,0.499,2.267,0.499c0.886,0,1.626-0.171,2.22-0.514c0.594-0.342,1.072-0.795,1.436-1.359
		c0.362-0.563,0.624-1.208,0.785-1.934c0.161-0.725,0.241-1.47,0.241-2.235C224.336,27.569,224.241,26.859,224.05,26.164z"/>
</g>
</svg>
